# Blender 5.1.2
# www.blender.org
mtllib House_1.mtl
o Cube.001
v -40.000000 2.330048 16.000000
v -40.000000 32.330048 16.000000
v -40.000000 2.330048 -16.000000
v -40.000000 32.330048 -16.000000
v 40.000000 2.330048 16.000000
v 40.000000 32.330048 16.000000
v 40.000000 2.330048 -16.000000
v 40.000000 32.330048 -16.000000
v -40.000000 2.330048 -16.000000
v -40.000000 2.330048 16.000000
v -40.000000 32.330048 16.000000
v -40.000000 32.330048 -16.000000
v 40.000000 2.330048 -16.000000
v 40.000000 32.330048 -16.000000
v 40.000000 2.330048 16.000000
v 40.000000 32.330048 16.000000
v -40.000000 2.330048 -16.000000
v -40.000000 2.330048 16.000000
v 40.000000 2.330048 -16.000000
v 40.000000 2.330048 16.000000
v -35.755424 2.330048 -13.562517
v -35.755424 2.330048 13.562517
v 35.755424 2.330048 -13.562517
v 35.755424 2.330048 13.562517
v -35.755424 -0.669952 -13.562517
v -35.755424 -0.669952 13.562517
v 35.755424 -0.669952 -13.562517
v 35.755424 -0.669952 13.562517
vn 1.0000 -0.0000 -0.0000
vn -0.0000 -0.0000 1.0000
vn -1.0000 -0.0000 -0.0000
vn -0.0000 -0.0000 -1.0000
vn -0.0000 1.0000 -0.0000
vn -0.0000 -1.0000 -0.0000
vt 0.375000 0.000000
vt 0.375000 0.250000
vt 0.625000 0.250000
vt 0.625000 0.000000
vt 0.375000 0.500000
vt 0.625000 0.500000
vt 0.375000 0.750000
vt 0.625000 0.750000
vt 0.375000 1.000000
vt 0.625000 1.000000
vt 0.125000 0.500000
vt 0.125000 0.750000
vt 0.875000 0.750000
vt 0.875000 0.500000
s 0
f 1/1/1 3/2/1 4/3/1 2/4/1
f 3/2/2 7/5/2 8/6/2 4/3/2
f 7/5/3 5/7/3 6/8/3 8/6/3
f 5/7/4 1/9/4 2/10/4 6/8/4
f 3/11/5 1/12/5 5/7/5 7/5/5
f 8/6/6 6/8/6 2/13/6 4/14/6
f 10/1/3 11/4/3 12/3/3 9/2/3
f 9/2/4 12/3/4 14/6/4 13/5/4
f 13/5/1 14/6/1 16/8/1 15/7/1
f 15/7/2 16/8/2 11/10/2 10/9/2
f 15/7/5 10/9/5 18/9/5 20/7/5
f 14/6/5 12/14/5 11/13/5 16/8/5
f 20/7/6 18/9/6 22/9/6 24/7/6
f 9/2/5 13/5/5 19/5/5 17/2/5
f 10/1/5 9/2/5 17/2/5 18/1/5
f 13/5/5 15/7/5 20/7/5 19/5/5
f 24/7/2 22/9/2 26/9/2 28/7/2
f 17/2/6 19/5/6 23/5/6 21/2/6
f 19/5/6 20/7/6 24/7/6 23/5/6
f 18/1/6 17/2/6 21/2/6 22/1/6
f 25/11/6 27/5/6 28/7/6 26/12/6
f 21/2/4 23/5/4 27/5/4 25/2/4
f 23/5/1 24/7/1 28/7/1 27/5/1
f 22/1/3 21/2/3 25/2/3 26/1/3
o Cube
v -42.000000 4.769154 18.000000
v -42.000000 6.769154 18.000000
v -42.000000 4.769154 -18.000000
v -42.000000 6.769154 -18.000000
v 42.000000 4.769154 18.000000
v 42.000000 6.769154 18.000000
v 42.000000 4.769154 -18.000000
v 42.000000 6.769154 -18.000000
vn -1.0000 -0.0000 -0.0000
vn -0.0000 -0.0000 -1.0000
vn 1.0000 -0.0000 -0.0000
vn -0.0000 -0.0000 1.0000
vn -0.0000 -1.0000 -0.0000
vn -0.0000 1.0000 -0.0000
vt 0.375000 0.000000
vt 0.625000 0.000000
vt 0.625000 0.250000
vt 0.375000 0.250000
vt 0.625000 0.500000
vt 0.375000 0.500000
vt 0.625000 0.750000
vt 0.375000 0.750000
vt 0.625000 1.000000
vt 0.375000 1.000000
vt 0.125000 0.500000
vt 0.125000 0.750000
vt 0.875000 0.500000
vt 0.875000 0.750000
s 0
f 29/15/7 30/16/7 32/17/7 31/18/7
f 31/18/8 32/17/8 36/19/8 35/20/8
f 35/20/9 36/19/9 34/21/9 33/22/9
f 33/22/10 34/21/10 30/23/10 29/24/10
f 31/25/11 35/20/11 33/22/11 29/26/11
f 36/19/12 32/27/12 30/28/12 34/21/12
o Cube.002
v -42.000000 9.769154 18.000000
v -42.000000 11.769154 18.000000
v -42.000000 9.769154 -18.000000
v -42.000000 11.769154 -18.000000
v 42.000000 9.769154 18.000000
v 42.000000 11.769154 18.000000
v 42.000000 9.769154 -18.000000
v 42.000000 11.769154 -18.000000
vn -1.0000 -0.0000 -0.0000
vn -0.0000 -0.0000 -1.0000
vn 1.0000 -0.0000 -0.0000
vn -0.0000 -0.0000 1.0000
vn -0.0000 -1.0000 -0.0000
vn -0.0000 1.0000 -0.0000
vt 0.375000 0.000000
vt 0.625000 0.000000
vt 0.625000 0.250000
vt 0.375000 0.250000
vt 0.625000 0.500000
vt 0.375000 0.500000
vt 0.625000 0.750000
vt 0.375000 0.750000
vt 0.625000 1.000000
vt 0.375000 1.000000
vt 0.125000 0.500000
vt 0.125000 0.750000
vt 0.875000 0.500000
vt 0.875000 0.750000
s 0
f 37/29/13 38/30/13 40/31/13 39/32/13
f 39/32/14 40/31/14 44/33/14 43/34/14
f 43/34/15 44/33/15 42/35/15 41/36/15
f 41/36/16 42/35/16 38/37/16 37/38/16
f 39/39/17 43/34/17 41/36/17 37/40/17
f 44/33/18 40/41/18 38/42/18 42/35/18
o Cube.003
v -42.000000 14.769154 18.000000
v -42.000000 16.769154 18.000000
v -42.000000 14.769154 -18.000000
v -42.000000 16.769154 -18.000000
v 42.000000 14.769154 18.000000
v 42.000000 16.769154 18.000000
v 42.000000 14.769154 -18.000000
v 42.000000 16.769154 -18.000000
vn -1.0000 -0.0000 -0.0000
vn -0.0000 -0.0000 -1.0000
vn 1.0000 -0.0000 -0.0000
vn -0.0000 -0.0000 1.0000
vn -0.0000 -1.0000 -0.0000
vn -0.0000 1.0000 -0.0000
vt 0.375000 0.000000
vt 0.625000 0.000000
vt 0.625000 0.250000
vt 0.375000 0.250000
vt 0.625000 0.500000
vt 0.375000 0.500000
vt 0.625000 0.750000
vt 0.375000 0.750000
vt 0.625000 1.000000
vt 0.375000 1.000000
vt 0.125000 0.500000
vt 0.125000 0.750000
vt 0.875000 0.500000
vt 0.875000 0.750000
s 0
f 45/43/19 46/44/19 48/45/19 47/46/19
f 47/46/20 48/45/20 52/47/20 51/48/20
f 51/48/21 52/47/21 50/49/21 49/50/21
f 49/50/22 50/49/22 46/51/22 45/52/22
f 47/53/23 51/48/23 49/50/23 45/54/23
f 52/47/24 48/55/24 46/56/24 50/49/24
o Cube.004
v -42.000000 19.769154 18.000000
v -42.000000 21.769154 18.000000
v -42.000000 19.769154 -18.000000
v -42.000000 21.769154 -18.000000
v 42.000000 19.769154 18.000000
v 42.000000 21.769154 18.000000
v 42.000000 19.769154 -18.000000
v 42.000000 21.769154 -18.000000
vn -1.0000 -0.0000 -0.0000
vn -0.0000 -0.0000 -1.0000
vn 1.0000 -0.0000 -0.0000
vn -0.0000 -0.0000 1.0000
vn -0.0000 -1.0000 -0.0000
vn -0.0000 1.0000 -0.0000
vt 0.375000 0.000000
vt 0.625000 0.000000
vt 0.625000 0.250000
vt 0.375000 0.250000
vt 0.625000 0.500000
vt 0.375000 0.500000
vt 0.625000 0.750000
vt 0.375000 0.750000
vt 0.625000 1.000000
vt 0.375000 1.000000
vt 0.125000 0.500000
vt 0.125000 0.750000
vt 0.875000 0.500000
vt 0.875000 0.750000
s 0
f 53/57/25 54/58/25 56/59/25 55/60/25
f 55/60/26 56/59/26 60/61/26 59/62/26
f 59/62/27 60/61/27 58/63/27 57/64/27
f 57/64/28 58/63/28 54/65/28 53/66/28
f 55/67/29 59/62/29 57/64/29 53/68/29
f 60/61/30 56/69/30 54/70/30 58/63/30
o Cube.005
v -42.000000 24.769154 18.000000
v -42.000000 26.769154 18.000000
v -42.000000 24.769154 -18.000000
v -42.000000 26.769154 -18.000000
v 42.000000 24.769154 18.000000
v 42.000000 26.769154 18.000000
v 42.000000 24.769154 -18.000000
v 42.000000 26.769154 -18.000000
vn -1.0000 -0.0000 -0.0000
vn -0.0000 -0.0000 -1.0000
vn 1.0000 -0.0000 -0.0000
vn -0.0000 -0.0000 1.0000
vn -0.0000 -1.0000 -0.0000
vn -0.0000 1.0000 -0.0000
vt 0.375000 0.000000
vt 0.625000 0.000000
vt 0.625000 0.250000
vt 0.375000 0.250000
vt 0.625000 0.500000
vt 0.375000 0.500000
vt 0.625000 0.750000
vt 0.375000 0.750000
vt 0.625000 1.000000
vt 0.375000 1.000000
vt 0.125000 0.500000
vt 0.125000 0.750000
vt 0.875000 0.500000
vt 0.875000 0.750000
s 0
f 61/71/31 62/72/31 64/73/31 63/74/31
f 63/74/32 64/73/32 68/75/32 67/76/32
f 67/76/33 68/75/33 66/77/33 65/78/33
f 65/78/34 66/77/34 62/79/34 61/80/34
f 63/81/35 67/76/35 65/78/35 61/82/35
f 68/75/36 64/83/36 62/84/36 66/77/36
o Cube.006
v -42.000000 30.777779 18.000000
v -42.000000 32.777779 18.000000
v -42.000000 30.777779 -18.000000
v -42.000000 32.777779 -18.000000
v 42.000000 30.777779 18.000000
v 42.000000 32.777779 18.000000
v 42.000000 30.777779 -18.000000
v 42.000000 32.777779 -18.000000
vn -1.0000 -0.0000 -0.0000
vn -0.0000 -0.0000 -1.0000
vn 1.0000 -0.0000 -0.0000
vn -0.0000 -0.0000 1.0000
vn -0.0000 -1.0000 -0.0000
vn -0.0000 1.0000 -0.0000
vt 0.375000 0.000000
vt 0.625000 0.000000
vt 0.625000 0.250000
vt 0.375000 0.250000
vt 0.625000 0.500000
vt 0.375000 0.500000
vt 0.625000 0.750000
vt 0.375000 0.750000
vt 0.625000 1.000000
vt 0.375000 1.000000
vt 0.125000 0.500000
vt 0.125000 0.750000
vt 0.875000 0.500000
vt 0.875000 0.750000
s 0
f 69/85/37 70/86/37 72/87/37 71/88/37
f 71/88/38 72/87/38 76/89/38 75/90/38
f 75/90/39 76/89/39 74/91/39 73/92/39
f 73/92/40 74/91/40 70/93/40 69/94/40
f 71/95/41 75/90/41 73/92/41 69/96/41
f 76/89/42 72/97/42 70/98/42 74/91/42
o Cube.007
v -5.000000 -0.633711 -8.850876
v -5.000000 39.366287 -8.850876
v -5.000000 -0.633711 -18.850876
v -5.000000 39.366287 -18.850876
v 5.000000 -0.633711 -8.850876
v 5.000000 39.366287 -8.850876
v 5.000000 -0.633711 -18.850876
v 5.000000 39.366287 -18.850876
vn -1.0000 -0.0000 -0.0000
vn -0.0000 -0.0000 -1.0000
vn 1.0000 -0.0000 -0.0000
vn -0.0000 -0.0000 1.0000
vn -0.0000 -1.0000 -0.0000
vn -0.0000 1.0000 -0.0000
vt 0.375000 0.000000
vt 0.625000 0.000000
vt 0.625000 0.250000
vt 0.375000 0.250000
vt 0.625000 0.500000
vt 0.375000 0.500000
vt 0.625000 0.750000
vt 0.375000 0.750000
vt 0.625000 1.000000
vt 0.375000 1.000000
vt 0.125000 0.500000
vt 0.125000 0.750000
vt 0.875000 0.500000
vt 0.875000 0.750000
s 0
f 77/99/43 78/100/43 80/101/43 79/102/43
f 79/102/44 80/101/44 84/103/44 83/104/44
f 83/104/45 84/103/45 82/105/45 81/106/45
f 81/106/46 82/105/46 78/107/46 77/108/46
f 79/109/47 83/104/47 81/106/47 77/110/47
f 84/103/48 80/111/48 78/112/48 82/105/48
