# Blender 5.1.2
# www.blender.org
mtllib House_3.mtl
o Cube.013
v -22.000000 -16.975363 -22.646610
v -22.000000 -12.975363 -22.646610
v -22.000000 -16.975363 -26.646610
v -22.000000 -12.975363 -26.646610
v 22.000000 -16.975363 -22.646610
v 22.000000 -12.975363 -22.646610
v 22.000000 -16.975363 -26.646610
v 22.000000 -12.975363 -26.646610
v -22.000000 -10.975363 -22.646610
v -22.000000 -6.975363 -22.646610
v -22.000000 -10.975363 -26.646610
v -22.000000 -6.975363 -26.646610
v 22.000000 -10.975363 -22.646610
v 22.000000 -6.975363 -22.646610
v 22.000000 -10.975363 -26.646610
v 22.000000 -6.975363 -26.646610
v -22.000000 -4.975363 -22.646610
v -22.000000 -0.975363 -22.646610
v -22.000000 -4.975363 -26.646610
v -22.000000 -0.975363 -26.646610
v 22.000000 -4.975363 -22.646610
v 22.000000 -0.975363 -22.646610
v 22.000000 -4.975363 -26.646610
v 22.000000 -0.975363 -26.646610
v -22.000000 1.024637 -22.646610
v -22.000000 5.024637 -22.646610
v -22.000000 1.024637 -26.646610
v -22.000000 5.024637 -26.646610
v 22.000000 1.024637 -22.646610
v 22.000000 5.024637 -22.646610
v 22.000000 1.024637 -26.646610
v 22.000000 5.024637 -26.646610
v -22.000000 7.024637 -22.646610
v -22.000000 11.024637 -22.646610
v -22.000000 7.024637 -26.646610
v -22.000000 11.024637 -26.646610
v 22.000000 7.024637 -22.646610
v 22.000000 11.024637 -22.646610
v 22.000000 7.024637 -26.646610
v 22.000000 11.024637 -26.646610
v -22.000000 13.024637 -22.646610
v -22.000000 17.024637 -22.646610
v -22.000000 13.024637 -26.646610
v -22.000000 17.024637 -26.646610
v 22.000000 13.024637 -22.646610
v 22.000000 17.024637 -22.646610
v 22.000000 13.024637 -26.646610
v 22.000000 17.024637 -26.646610
v -20.000000 -20.000000 25.000000
v -20.000000 20.000002 25.000000
v -20.000000 -20.000000 -25.000000
v -20.000000 20.000002 -25.000000
v 20.000000 -20.000000 25.000000
v 20.000000 20.000002 25.000000
v 20.000000 -20.000000 -25.000000
v 20.000000 20.000002 -25.000000
v -20.000000 -20.000000 -15.929058
v -20.000000 20.000002 -15.929058
v 20.000000 -20.000000 -15.929058
v 20.000000 20.000002 -15.929058
v -18.258444 20.000002 -16.323997
v -18.258444 20.000002 -24.605061
v 18.258444 20.000002 -24.605061
v 18.258444 20.000002 -16.323997
v -18.258444 26.154894 -16.323997
v -18.258444 26.154894 -24.605061
v 18.258444 26.154894 -24.605061
v 18.258444 26.154894 -16.323997
v -22.248100 26.154894 -15.826014
v -22.248100 26.154894 -25.103045
v 22.248100 26.154894 -25.103045
v 22.248100 26.154894 -15.826014
v -22.248100 26.856565 -15.826014
v -22.248100 26.856565 -25.103045
v 22.248100 26.856565 -25.103045
v 22.248100 26.856565 -15.826014
v -22.248100 26.154894 -8.924716
v 22.248100 26.154894 -8.924716
v -22.248100 26.856565 -8.924716
v 22.248100 26.856565 -8.924716
v 18.255741 -20.000000 -25.000000
v 18.255741 20.000002 -25.000000
v 18.255741 -20.000000 25.000000
v 18.255741 20.000002 25.000000
v 18.255741 20.000002 -15.929058
v 18.255741 -20.000000 -15.929058
v 16.666073 20.000002 -24.605061
v 16.666073 20.000002 -16.323997
v 16.666073 26.154894 -24.605061
v 16.666073 26.154894 -16.323997
v 18.670506 26.154894 -25.103045
v 18.670506 26.154894 -15.826014
v 18.670506 26.856565 -25.103045
v 18.670506 26.856565 -15.826014
v 18.670506 26.154894 -8.924716
v 18.670506 26.856565 -8.924716
v -18.066595 -20.000000 -25.000000
v -18.066595 20.000002 25.000000
v -18.066595 -20.000000 -15.929058
v -18.066595 20.000002 -25.000000
v -18.066595 -20.000000 25.000000
v -18.066595 20.000002 -15.929058
v -16.493395 20.000002 -24.605061
v -16.493395 20.000002 -16.323997
v -16.493395 26.154894 -24.605061
v -16.493395 26.154894 -16.323997
v -18.477060 26.154894 -25.103045
v -18.477060 26.154894 -15.826014
v -18.477060 26.856565 -25.103045
v -18.477060 26.856565 -15.826014
v -18.477060 26.154894 -8.924716
v -18.477060 26.856565 -8.924716
v -20.000000 -20.000000 23.668674
v 20.000000 20.000002 23.668674
v -20.000000 20.000002 23.668674
v 20.000000 -20.000000 23.668674
v 18.255741 20.000002 23.668674
v 18.255741 -20.000000 23.668674
v -18.066595 -20.000000 23.668674
v -18.066595 20.000002 23.668674
v -22.000000 -16.975363 26.357162
v -22.000000 -12.975363 26.357162
v -22.000000 -16.975363 22.357162
v -22.000000 -12.975363 22.357162
v 22.000000 -16.975363 26.357162
v 22.000000 -12.975363 26.357162
v 22.000000 -16.975363 22.357162
v 22.000000 -12.975363 22.357162
v -22.000000 -10.975363 26.357162
v -22.000000 -6.975363 26.357162
v -22.000000 -10.975363 22.357162
v -22.000000 -6.975363 22.357162
v 22.000000 -10.975363 26.357162
v 22.000000 -6.975363 26.357162
v 22.000000 -10.975363 22.357162
v 22.000000 -6.975363 22.357162
v -22.000000 -4.975363 26.357162
v -22.000000 -0.975363 26.357162
v -22.000000 -4.975363 22.357162
v -22.000000 -0.975363 22.357162
v 22.000000 -4.975363 26.357162
v 22.000000 -0.975363 26.357162
v 22.000000 -4.975363 22.357162
v 22.000000 -0.975363 22.357162
v -22.000000 1.024637 26.357162
v -22.000000 5.024637 26.357162
v -22.000000 1.024637 22.357162
v -22.000000 5.024637 22.357162
v 22.000000 1.024637 26.357162
v 22.000000 5.024637 26.357162
v 22.000000 1.024637 22.357162
v 22.000000 5.024637 22.357162
v -22.000000 7.024637 26.357162
v -22.000000 11.024637 26.357162
v -22.000000 7.024637 22.357162
v -22.000000 11.024637 22.357162
v 22.000000 7.024637 26.357162
v 22.000000 11.024637 26.357162
v 22.000000 7.024637 22.357162
v 22.000000 11.024637 22.357162
v -22.000000 13.024637 26.357162
v -22.000000 17.024637 26.357162
v -22.000000 13.024637 22.357162
v -22.000000 17.024637 22.357162
v 22.000000 13.024637 26.357162
v 22.000000 17.024637 26.357162
v 22.000000 13.024637 22.357162
v 22.000000 17.024637 22.357162
v -13.482682 -16.406223 26.980541
v -13.482682 16.406223 26.980541
v -13.482682 -16.406223 24.980541
v -13.482682 16.406223 24.980541
v 13.885585 -16.406223 26.980541
v 13.885585 16.406223 26.980541
v 13.885585 -16.406223 24.980541
v 13.885585 16.406223 24.980541
v -10.381089 -12.634151 24.980541
v -10.381089 12.634151 24.980541
v 10.783993 -12.634151 24.980541
v 10.783993 12.634151 24.980541
v 10.783993 -12.634151 26.980541
v 10.783993 12.634151 26.980541
v -10.381089 -12.634151 26.980541
v -10.381089 12.634151 26.980541
v -13.482682 -16.406223 -25.666723
v -13.482682 16.406223 -25.666723
v -13.482682 -16.406223 -27.666723
v -13.482682 16.406223 -27.666723
v 13.885585 -16.406223 -25.666723
v 13.885585 16.406223 -25.666723
v 13.885585 -16.406223 -27.666723
v 13.885585 16.406223 -27.666723
v -10.381089 -12.634151 -27.666723
v -10.381089 12.634151 -27.666723
v 10.783993 -12.634151 -27.666723
v 10.783993 12.634151 -27.666723
v 10.783993 -12.634151 -25.666723
v 10.783993 12.634151 -25.666723
v -10.381089 -12.634151 -25.666723
v -10.381089 12.634151 -25.666723
vn -1.0000 -0.0000 -0.0000
vn -0.0000 -0.0000 -1.0000
vn 1.0000 -0.0000 -0.0000
vn -0.0000 -0.0000 1.0000
vn -0.0000 -1.0000 -0.0000
vn -0.0000 1.0000 -0.0000
vt 0.375000 0.000000
vt 0.625000 0.000000
vt 0.625000 0.250000
vt 0.375000 0.250000
vt 0.625000 0.500000
vt 0.375000 0.500000
vt 0.625000 0.750000
vt 0.375000 0.750000
vt 0.625000 1.000000
vt 0.375000 1.000000
vt 0.125000 0.500000
vt 0.125000 0.750000
vt 0.875000 0.500000
vt 0.875000 0.750000
vt 0.375000 0.204645
vt 0.625000 0.204645
vt 0.375000 0.489098
vt 0.625000 0.489098
vt 0.375000 0.743343
vt 0.625000 0.743343
vt 0.375000 0.987916
vt 0.625000 0.987916
vt 0.364098 0.743343
vt 0.364098 0.750000
vt 0.862916 0.743343
vt 0.875000 0.743343
vt 0.862916 0.750000
vt 0.625000 0.545355
vt 0.364098 0.500000
vt 0.375000 0.545355
vt 0.364098 0.545355
vt 0.375000 0.006657
vt 0.625000 0.006657
vt 0.625000 0.262084
vt 0.635902 0.545355
vt 0.625000 0.262084
vt 0.862916 0.500000
vt 0.875000 0.545355
vt 0.862916 0.545355
vt 0.862916 0.545355
vt 0.635902 0.500000
vt 0.862916 0.545355
vt 0.137084 0.500000
vt 0.137084 0.545355
vt 0.635902 0.743343
vt 0.635902 0.750000
vt 0.137084 0.743343
vt 0.137084 0.750000
vt 0.625000 0.760902
vt 0.375000 0.760902
vt 0.375000 0.262084
vt 0.125000 0.743343
vt 0.125000 0.545355
vt 0.403740 0.471668
vt 0.596260 0.471668
vt 0.596260 0.278332
vt 0.403740 0.278332
vt 0.403740 0.971668
vt 0.596260 0.971668
vt 0.596260 0.778332
vt 0.403740 0.778332
vt 0.375000 0.087260
vt 0.375000 0.162740
vt 0.625000 0.162740
vt 0.625000 0.087260
vt 0.625000 0.662740
vt 0.625000 0.587260
vt 0.375000 0.587260
vt 0.375000 0.662740
vt 0.125000 0.587260
vt 0.125000 0.662740
vt 0.875000 0.587260
vt 0.875000 0.662740
s 0
usemtl 
f 1/1/1 2/2/1 4/3/1 3/4/1
f 3/4/2 4/3/2 8/5/2 7/6/2
f 7/6/3 8/5/3 6/7/3 5/8/3
f 5/8/4 6/7/4 2/9/4 1/10/4
f 3/11/5 7/6/5 5/8/5 1/12/5
f 8/5/6 4/13/6 2/14/6 6/7/6
f 9/1/1 10/2/1 12/3/1 11/4/1
f 11/4/2 12/3/2 16/5/2 15/6/2
f 15/6/3 16/5/3 14/7/3 13/8/3
f 13/8/4 14/7/4 10/9/4 9/10/4
f 11/11/5 15/6/5 13/8/5 9/12/5
f 16/5/6 12/13/6 10/14/6 14/7/6
f 17/1/1 18/2/1 20/3/1 19/4/1
f 19/4/2 20/3/2 24/5/2 23/6/2
f 23/6/3 24/5/3 22/7/3 21/8/3
f 21/8/4 22/7/4 18/9/4 17/10/4
f 19/11/5 23/6/5 21/8/5 17/12/5
f 24/5/6 20/13/6 18/14/6 22/7/6
f 25/1/1 26/2/1 28/3/1 27/4/1
f 27/4/2 28/3/2 32/5/2 31/6/2
f 31/6/3 32/5/3 30/7/3 29/8/3
f 29/8/4 30/7/4 26/9/4 25/10/4
f 27/11/5 31/6/5 29/8/5 25/12/5
f 32/5/6 28/13/6 26/14/6 30/7/6
f 33/1/1 34/2/1 36/3/1 35/4/1
f 35/4/2 36/3/2 40/5/2 39/6/2
f 39/6/3 40/5/3 38/7/3 37/8/3
f 37/8/4 38/7/4 34/9/4 33/10/4
f 35/11/5 39/6/5 37/8/5 33/12/5
f 40/5/6 36/13/6 34/14/6 38/7/6
f 41/1/1 42/2/1 44/3/1 43/4/1
f 43/4/2 44/3/2 48/5/2 47/6/2
f 47/6/3 48/5/3 46/7/3 45/8/3
f 45/8/4 46/7/4 42/9/4 41/10/4
f 43/11/5 47/6/5 45/8/5 41/12/5
f 48/5/6 44/13/6 42/14/6 46/7/6
f 57/15/1 58/16/1 52/3/1 51/4/1
f 81/17/2 82/18/2 56/5/2 55/6/2
f 116/19/3 114/20/3 54/7/3 53/8/3
f 101/21/4 98/22/4 50/9/4 49/10/4
f 118/23/5 116/19/5 53/8/5 83/24/5
f 120/25/6 115/26/6 50/14/6 98/27/6
f 60/28/6 56/5/6 63/5/6 64/28/6
f 81/29/5 55/6/5 59/30/5 86/31/5
f 55/6/3 56/5/3 60/28/3 59/30/3
f 113/32/1 115/33/1 58/16/1 57/15/1
f 64/28/3 63/5/3 67/5/3 68/28/3
f 52/3/6 58/16/6 61/16/6 62/3/6
f 100/34/6 52/3/6 62/3/6 103/34/6
f 85/35/6 60/28/6 64/28/6 88/35/6
f 90/35/5 68/28/5 72/28/5 92/35/5
f 62/3/1 61/16/1 65/16/1 66/3/1
f 88/35/4 64/28/4 68/28/4 90/35/4
f 103/34/2 62/3/2 66/3/2 105/34/2
f 107/36/2 70/3/2 74/3/2 109/34/2
f 105/34/5 66/3/5 70/3/5 107/36/5
f 68/28/5 67/5/5 71/5/5 72/28/5
f 66/3/5 65/16/5 69/16/5 70/3/5
f 109/37/6 74/13/6 73/38/6 110/39/6
f 72/28/3 71/5/3 75/5/3 76/28/3
f 70/3/1 69/16/1 73/16/1 74/3/1
f 73/16/1 69/16/1 77/16/1 79/16/1
f 95/35/4 78/28/4 80/28/4 96/35/4
f 110/39/6 73/38/6 79/38/6 112/39/6
f 92/35/5 72/28/5 78/28/5 95/35/5
f 72/28/3 76/28/3 80/28/3 78/28/3
f 108/40/5 92/35/5 95/35/5 111/39/5
f 76/28/6 94/35/6 96/35/6 80/28/6
f 111/39/4 95/35/4 96/35/4 112/39/4
f 75/5/6 93/41/6 94/35/6 76/28/6
f 67/5/5 89/18/5 91/18/5 71/5/5
f 71/5/2 91/18/2 93/18/2 75/5/2
f 63/5/2 87/18/2 89/18/2 67/5/2
f 104/39/4 88/35/4 90/35/4 106/42/4
f 106/42/5 90/35/5 92/35/5 108/40/5
f 102/39/6 85/35/6 88/35/6 104/39/6
f 56/5/6 82/18/6 87/18/6 63/5/6
f 97/43/5 81/29/5 86/31/5 99/44/5
f 114/20/6 117/45/6 84/46/6 54/7/6
f 119/47/5 118/23/5 83/24/5 101/48/5
f 53/8/4 54/7/4 84/49/4 83/50/4
f 97/51/2 100/34/2 82/18/2 81/17/2
f 51/4/2 52/3/2 100/34/2 97/51/2
f 113/52/5 119/47/5 101/48/5 49/12/5
f 51/11/5 97/43/5 99/44/5 57/53/5
f 58/38/6 102/39/6 104/39/6 61/38/6
f 65/38/5 106/42/5 108/40/5 69/38/5
f 61/38/4 104/39/4 106/42/4 65/38/4
f 77/38/4 111/39/4 112/39/4 79/38/4
f 69/38/5 108/40/5 111/39/5 77/38/5
f 94/35/6 110/39/6 112/39/6 96/35/6
f 93/41/6 109/37/6 110/39/6 94/35/6
f 89/18/5 105/34/5 107/36/5 91/18/5
f 91/18/2 107/36/2 109/34/2 93/18/2
f 87/18/2 103/34/2 105/34/2 89/18/2
f 82/18/6 100/34/6 103/34/6 87/18/6
f 117/45/6 120/25/6 98/27/6 84/46/6
f 83/50/4 84/49/4 98/22/4 101/21/4
f 85/35/6 102/39/6 120/25/6 117/45/6
f 57/53/5 99/44/5 119/47/5 113/52/5
f 99/44/5 86/31/5 118/23/5 119/47/5
f 60/28/6 85/35/6 117/45/6 114/20/6
f 49/1/1 50/2/1 115/33/1 113/32/1
f 102/39/6 58/38/6 115/26/6 120/25/6
f 86/31/5 59/30/5 116/19/5 118/23/5
f 59/30/3 60/28/3 114/20/3 116/19/3
f 121/1/1 122/2/1 124/3/1 123/4/1
f 123/4/2 124/3/2 128/5/2 127/6/2
f 127/6/3 128/5/3 126/7/3 125/8/3
f 125/8/4 126/7/4 122/9/4 121/10/4
f 123/11/5 127/6/5 125/8/5 121/12/5
f 128/5/6 124/13/6 122/14/6 126/7/6
f 129/1/1 130/2/1 132/3/1 131/4/1
f 131/4/2 132/3/2 136/5/2 135/6/2
f 135/6/3 136/5/3 134/7/3 133/8/3
f 133/8/4 134/7/4 130/9/4 129/10/4
f 131/11/5 135/6/5 133/8/5 129/12/5
f 136/5/6 132/13/6 130/14/6 134/7/6
f 137/1/1 138/2/1 140/3/1 139/4/1
f 139/4/2 140/3/2 144/5/2 143/6/2
f 143/6/3 144/5/3 142/7/3 141/8/3
f 141/8/4 142/7/4 138/9/4 137/10/4
f 139/11/5 143/6/5 141/8/5 137/12/5
f 144/5/6 140/13/6 138/14/6 142/7/6
f 145/1/1 146/2/1 148/3/1 147/4/1
f 147/4/2 148/3/2 152/5/2 151/6/2
f 151/6/3 152/5/3 150/7/3 149/8/3
f 149/8/4 150/7/4 146/9/4 145/10/4
f 147/11/5 151/6/5 149/8/5 145/12/5
f 152/5/6 148/13/6 146/14/6 150/7/6
f 153/1/1 154/2/1 156/3/1 155/4/1
f 155/4/2 156/3/2 160/5/2 159/6/2
f 159/6/3 160/5/3 158/7/3 157/8/3
f 157/8/4 158/7/4 154/9/4 153/10/4
f 155/11/5 159/6/5 157/8/5 153/12/5
f 160/5/6 156/13/6 154/14/6 158/7/6
f 161/1/1 162/2/1 164/3/1 163/4/1
f 163/4/2 164/3/2 168/5/2 167/6/2
f 167/6/3 168/5/3 166/7/3 165/8/3
f 165/8/4 166/7/4 162/9/4 161/10/4
f 163/11/5 167/6/5 165/8/5 161/12/5
f 168/5/6 164/13/6 162/14/6 166/7/6
f 169/1/1 170/2/1 172/3/1 171/4/1
f 176/5/2 175/6/2 179/54/2 180/55/2
f 175/6/2 171/4/2 172/3/2 176/5/2 180/55/2 178/56/2 177/57/2 179/54/2
f 175/6/3 176/5/3 174/7/3 173/8/3
f 183/58/4 169/10/4 173/8/4 174/7/4 170/9/4 184/59/4 182/60/4 181/61/4
f 170/9/4 169/10/4 183/58/4 184/59/4
f 171/11/5 175/6/5 173/8/5 169/12/5
f 176/5/6 172/13/6 170/14/6 174/7/6
f 183/62/3 177/63/3 178/64/3 184/65/3
f 182/66/1 180/67/1 179/68/1 181/69/1
f 181/69/6 179/68/6 177/70/6 183/71/6
f 178/72/5 180/67/5 182/66/5 184/73/5
f 185/1/1 186/2/1 188/3/1 187/4/1
f 192/5/2 191/6/2 195/54/2 196/55/2
f 191/6/2 187/4/2 188/3/2 192/5/2 196/55/2 194/56/2 193/57/2 195/54/2
f 191/6/3 192/5/3 190/7/3 189/8/3
f 199/58/4 185/10/4 189/8/4 190/7/4 186/9/4 200/59/4 198/60/4 197/61/4
f 186/9/4 185/10/4 199/58/4 200/59/4
f 187/11/5 191/6/5 189/8/5 185/12/5
f 192/5/6 188/13/6 186/14/6 190/7/6
f 199/62/3 193/63/3 194/64/3 200/65/3
f 198/66/1 196/67/1 195/68/1 197/69/1
f 197/69/6 195/68/6 193/70/6 199/71/6
f 194/72/5 196/67/5 198/66/5 200/73/5
